HIERARCHY
ROOT Hips
{
	OFFSET 0.00000 0.00000 0.00000
	CHANNELS 6 Xposition Yposition Zposition Zrotation Yrotation Xrotation 
	JOINT LHipJoint
	{
		OFFSET 0 0 0
		CHANNELS 3 Zrotation Yrotation Xrotation
		JOINT LeftUpLeg
		{
			OFFSET 1.44960 -1.75505 0.85172
			CHANNELS 3 Zrotation Yrotation Xrotation
			JOINT LeftLeg
			{
				OFFSET 2.40573 -6.60971 0.00000
				CHANNELS 3 Zrotation Yrotation Xrotation
				JOINT LeftFoot
				{
					OFFSET 2.58773 -7.10974 0.00000
					CHANNELS 3 Zrotation Yrotation Xrotation
					JOINT LeftToeBase
					{
						OFFSET 0.18252 -0.50147 1.77316
						CHANNELS 3 Zrotation Yrotation Xrotation
						End Site
						{
							OFFSET 0.00000 -0.00000 0.92990
						}
					}
				}
			}
		}
	}
	JOINT RHipJoint
	{
		OFFSET 0 0 0
		CHANNELS 3 Zrotation Yrotation Xrotation
		JOINT RightUpLeg
		{
			OFFSET -1.40744 -1.75505 0.85172
			CHANNELS 3 Zrotation Yrotation Xrotation
			JOINT RightLeg
			{
				OFFSET -2.43714 -6.69600 0.00000
				CHANNELS 3 Zrotation Yrotation Xrotation
				JOINT RightFoot
				{
					OFFSET -2.51650 -6.91404 0.00000
					CHANNELS 3 Zrotation Yrotation Xrotation
					JOINT RightToeBase
					{
						OFFSET -0.25383 -0.69740 1.96384
						CHANNELS 3 Zrotation Yrotation Xrotation
						End Site
						{
							OFFSET -0.00000 -0.00000 1.04244
						}
					}
				}
			}
		}
	}
	JOINT LowerBack
	{
		OFFSET 0 0 0
		CHANNELS 3 Zrotation Yrotation Xrotation
		JOINT Spine
		{
			OFFSET 0.00579 2.14458 -0.24367
			CHANNELS 3 Zrotation Yrotation Xrotation
			JOINT Spine1
			{
				OFFSET 0.05899 2.16316 -0.04515
				CHANNELS 3 Zrotation Yrotation Xrotation
				JOINT Neck
				{
					OFFSET 0 0 0
					CHANNELS 3 Zrotation Yrotation Xrotation
					JOINT Neck1
					{
						OFFSET -0.01650 1.59577 0.24841
						CHANNELS 3 Zrotation Yrotation Xrotation
						JOINT Head
						{
							OFFSET -0.01016 1.63072 -0.17782
							CHANNELS 3 Zrotation Yrotation Xrotation
							End Site
							{
								OFFSET -0.00250 1.64111 -0.08717
							}
						}
					}
				}
				JOINT LeftShoulder
				{
					OFFSET 0 0 0
					CHANNELS 3 Zrotation Yrotation Xrotation
					JOINT LeftArm
					{
						OFFSET 3.17745 0.95174 -0.45729
						CHANNELS 3 Zrotation Yrotation Xrotation
						JOINT LeftForeArm
						{
							OFFSET 4.93485 -0.00000 0.00000
							CHANNELS 3 Zrotation Yrotation Xrotation
							JOINT LeftHand
							{
								OFFSET 3.41719 -0.00000 -0.00000
								CHANNELS 3 Zrotation Yrotation Xrotation
								JOINT LeftFingerBase
								{
									OFFSET 0 0 0
									CHANNELS 3 Zrotation Yrotation Xrotation
									JOINT LeftHandIndex1
									{
										OFFSET 0.62410 -0.00000 -0.00000
										CHANNELS 3 Zrotation Yrotation Xrotation
										End Site
										{
											OFFSET 0.50317 -0.00000 -0.00000
										}
									}
								}
								JOINT LThumb
								{
									OFFSET 0 0 0
									CHANNELS 3 Zrotation Yrotation Xrotation
									End Site
									{
										OFFSET 0.51085 -0.00000 0.51085
									}
								}
							}
						}
					}
				}
				JOINT RightShoulder
				{
					OFFSET 0 0 0
					CHANNELS 3 Zrotation Yrotation Xrotation
					JOINT RightArm
					{
						OFFSET -2.87924 1.13038 -0.75204
						CHANNELS 3 Zrotation Yrotation Xrotation
						JOINT RightForeArm
						{
							OFFSET -5.22034 -0.00000 0.00000
							CHANNELS 3 Zrotation Yrotation Xrotation
							JOINT RightHand
							{
								OFFSET -3.41809 -0.00000 -0.00000
								CHANNELS 3 Zrotation Yrotation Xrotation
								JOINT RightFingerBase
								{
									OFFSET 0 0 0
									CHANNELS 3 Zrotation Yrotation Xrotation
									JOINT RightHandIndex1
									{
										OFFSET -0.77534 -0.00000 -0.00000
										CHANNELS 3 Zrotation Yrotation Xrotation
										End Site
										{
											OFFSET -0.62510 -0.00000 -0.00000
										}
									}
								}
								JOINT RThumb
								{
									OFFSET 0 0 0
									CHANNELS 3 Zrotation Yrotation Xrotation
									End Site
									{
										OFFSET -0.63464 -0.00000 0.63464
									}
								}
							}
						}
					}
				}
			}
		}
	}
}
MOTION
Frames: 7
Frame Time: .0083333
0.4962 17.5445 19.5435 0 0 0 0 0 0 -21 0 0 0 0 0 0 0 0 0 0 0 0 0 0 21 0 0 0 0 0 0 0 0 0 0 0 0 0 0 0 0 0 0 0 0 0 0 -16 0 0 21 0 0 11 0 0 0 -8 0 0 0 0 0 0 0 0 0 0 0 0 0 0 0 0 0 0 0 0 8 0 0 0 0 0 0 0 0 0 0 0 0 0 0 0 0 0
0.4962 17.5445 19.5435 0.1590 -1.9098 11.8257 0.0000 0.0000 0.0000 -16.7971 -6.7310 -11.6499 0.4528 4.3169 11.9699 0.3742 0.2375 -11.6442 0.0263 -1.0460 -2.8755 0.0000 0.0000 0.0000 18.9567 7.8749 -14.1295 -0.6262 -5.0638 14.0906 -0.1009 -7.3601 -12.5015 -0.4068 -4.0947 11.3433 12.8127 -3.2670 13.1393 13.4750 -2.5268 6.1217 7.7465 -1.2526 -0.6546 -4.5422 -11.9333 -8.0923 -0.7106 -16.1093 30.3013 -1.4534 -7.7295 11.5042 -0.0000 -0.0000 0.0000 -90.5225 0.6074 44.4697 35.4118 -45.1040 -15.1044 -0.0000 -0.0000 1.1705 10.0531 41.7277 6.7296 -7.1250 0.0000 -0.0000 -37.7901 68.6347 -22.5942 -0.0000 -0.0000 0.0000 60.0997 19.0542 3.7545 -13.4730 21.9764 -2.6277 0.0000 0.0000 3.0885 -39.9458 26.8769 -20.7371 7.1250 -0.0000 -0.0000 -5.7179 3.3399 -6.0710
0.4891 17.5470 19.5421 0.3020 -1.7400 11.7705 0.0000 0.0000 0.0000 -16.9305 -6.6967 -11.4126 0.4217 4.1680 11.5499 0.3568 0.1313 -11.3315 0.0338 -1.1868 -3.2629 0.0000 0.0000 0.0000 18.8562 7.8354 -14.4523 -0.6808 -5.2758 14.6968 -0.1145 -7.2765 -12.6413 -0.3005 -3.5249 9.7437 12.8793 -3.2258 13.3015 13.5328 -2.4298 6.1549 7.7722 -1.2041 -0.7089 -4.1966 -11.9555 -8.2085 -1.0920 -16.0821 30.2374 -1.6332 -7.7256 11.4273 0.0000 0.0000 0.0000 -90.5460 0.6398 44.6630 35.5871 -45.2268 -15.2286 -0.0000 -0.0000 0.9933 9.6084 41.8476 6.4437 -7.1250 0.0000 -0.0000 -38.4594 68.5838 -22.9953 0.0000 0.0000 0.0000 60.2429 19.0466 2.5787 -13.7082 22.3160 -2.7163 0.0000 0.0000 4.3311 -40.6505 26.1768 -20.7457 7.1250 -0.0000 -0.0000 -6.2841 2.7832 -6.6210
0.4944 17.5452 19.5388 0.8405 -1.6484 11.6893 0.0000 0.0000 0.0000 -17.5650 -6.7128 -11.2685 0.4100 4.1106 11.3880 0.3539 -0.0199 -11.2309 0.0495 -1.4355 -3.9480 0.0000 0.0000 0.0000 18.2298 7.6131 -14.5954 -0.7136 -5.3985 15.0489 -0.1388 -7.1488 -12.9147 -0.3660 -3.8861 10.7563 12.6271 -3.2686 13.4648 13.4233 -2.4934 6.2352 7.8020 -1.2360 -0.7069 -4.0758 -11.8191 -8.5365 -1.1580 -15.9071 30.6508 -1.6956 -7.6238 11.6320 0.0000 -0.0000 0.0000 -90.5422 0.6344 44.3843 35.7691 -45.3536 -15.3580 -0.0000 -0.0000 1.3556 8.4596 42.0442 5.6882 -7.1250 0.0000 -0.0000 -39.9766 68.3665 -23.8202 0.0000 -0.0000 0.0000 60.2213 19.3850 2.3441 -13.4604 21.9581 -2.6230 0.0000 0.0000 4.9699 -42.1409 26.3116 -21.8550 7.1250 -0.0000 -0.0000 -7.1006 3.4884 -7.5764
0.4885 17.5486 19.5383 0.7491 -1.4675 11.6908 0.0000 0.0000 0.0000 -17.4034 -6.9634 -11.1920 0.4069 4.0950 11.3440 0.3474 0.0673 -11.1589 0.0189 -0.8885 -2.4420 0.0000 0.0000 0.0000 18.3838 7.5658 -14.7676 -0.7376 -5.4866 15.3018 -0.1400 -7.2190 -13.0132 -0.2817 -3.4136 9.4325 12.8790 -3.3202 13.5403 13.5314 -2.5008 6.1974 7.7974 -1.2387 -0.7890 -4.3486 -11.7478 -8.2562 -1.1395 -15.7724 30.7548 -1.6170 -7.5911 11.6449 -0.0000 0.0000 0.0000 -90.6416 0.8051 44.2276 35.9104 -45.4514 -15.4586 -0.0000 -0.0000 1.2021 8.6320 41.8089 5.7788 -7.1250 0.0000 -0.0000 -39.3880 68.2475 -23.3269 -0.0000 0.0000 0.0000 60.1929 19.2793 2.2962 -13.5383 22.0709 -2.6522 0.0000 0.0000 4.9140 -43.1430 26.9434 -23.0086 7.1250 -0.0000 -0.0000 -7.5090 4.6154 -8.1568
0.4937 17.5486 19.5315 1.1135 -1.4613 11.7110 0.0000 0.0000 0.0000 -17.8259 -6.8711 -11.3013 0.4042 4.0816 11.3063 0.4067 -0.4776 -11.8889 0.0236 -0.9922 -2.7273 0.0000 0.0000 0.0000 17.9043 7.5461 -15.0072 -0.7686 -5.5980 15.6225 -0.1552 -7.1257 -13.1632 -0.3745 -3.9305 10.8811 12.6567 -3.3826 13.6146 13.6155 -2.5919 6.2056 8.0366 -1.2904 -0.8046 -4.7096 -11.6339 -8.3692 -1.3360 -15.4896 30.9235 -1.6148 -7.5211 11.7459 0.0000 -0.0000 0.0000 -91.0254 0.9036 43.8403 36.1016 -45.5829 -15.5950 -0.0000 -0.0000 0.9483 8.3182 42.2836 5.6181 -7.1250 0.0000 -0.0000 -40.5470 68.4964 -24.3151 0.0000 -0.0000 0.0000 59.8587 19.4794 2.2809 -13.6692 22.2598 -2.7015 0.0000 0.0000 5.1594 -43.3565 27.2867 -23.4063 7.1250 -0.0000 -0.0000 -7.5412 5.1019 -8.2510
0.4845 17.5498 19.5285 0.8771 -1.1684 11.7435 0.0000 0.0000 0.0000 -17.4789 -7.0326 -11.4348 0.4142 4.1311 11.4458 0.3460 -0.3204 -11.0022 0.0042 -0.4161 -1.1433 0.0000 0.0000 0.0000 18.2565 7.3839 -15.2132 -0.7839 -5.6525 15.7795 -0.1446 -7.1985 -13.0680 -0.2663 -3.3198 9.1703 13.0119 -3.4783 13.6188 13.7077 -2.6704 6.2243 7.9625 -1.3233 -0.7862 -4.8147 -11.4916 -8.4538 -1.1046 -15.3385 31.0669 -1.5129 -7.4315 11.8499 0.0000 -0.0000 0.0000 -90.9061 0.9609 43.9177 36.1344 -45.6054 -15.6185 -0.0000 -0.0000 0.7783 10.0684 42.1210 6.7912 -7.1250 0.0000 -0.0000 -38.4745 68.9338 -23.2960 0.0000 -0.0000 0.0000 60.0316 19.5830 2.0766 -13.7467 22.3715 -2.7310 0.0000 0.0000 5.4730 -44.1056 27.1892 -23.8878 7.1250 -0.0000 -0.0000 -7.9840 5.2927 -8.7686
